<!DOCTYPE svg PUBLIC "-//W3C//DTD SVG 1.1//EN" "http://www.w3.org/Graphics/SVG/1.1/DTD/svg11.dtd">
<!-- Uploaded to: SVG Repo, www.svgrepo.com, Transformed by: SVG Repo Mixer Tools -->
<svg fill="#f1debd" height="800px" width="800px" version="1.1" id="Capa_1" xmlns="http://www.w3.org/2000/svg" xmlns:xlink="http://www.w3.org/1999/xlink" viewBox="0 0 296.991 296.991" xml:space="preserve">
<g id="SVGRepo_bgCarrier" stroke-width="0"/>
<g id="SVGRepo_tracerCarrier" stroke-linecap="round" stroke-linejoin="round"/>
<g id="SVGRepo_iconCarrier"> <g> <path d="M84.746,295.603c-5.444,0.001-10.95-1.633-15.788-5.021l-3.992-2.795c-12.256-8.582-15.407-25.092-7.174-37.585 l23.466-35.605l-35.605,23.466c-12.492,8.234-29.002,5.083-37.585-7.175l-3.112-4.443c-8.322-11.887-5.931-28.253,5.445-37.26 l83.259-65.915c1.445-9.656,6.276-18.531,13.787-25.041l108.92-94.396c3.962-3.438,9.91-3.225,13.62,0.485l64.076,64.076 c1.875,1.876,2.929,4.419,2.929,7.071s-1.054,5.196-2.929,7.071l-29.647,29.646c9.209,11,11.442,26.589,5.437,39.801 c-0.097,0.212-0.2,0.42-0.311,0.625l-29.523,54.496c-6.906,14.741-23.664,21.958-39.148,16.797l-2.77-0.924l-2.701,2.701 c-9.769,9.77-24.636,12.182-36.991,6.003c-0.649-0.325-1.263-0.72-1.826-1.178l-8.606-6.98l-40.965,60.552 c-0.077,0.115-0.158,0.229-0.24,0.341C101.364,291.728,93.129,295.603,84.746,295.603z M125.308,174.951 c1.585,3.132,1.443,6.961-0.573,10.021l-50.244,76.236c-2.233,3.389-1.379,7.868,1.946,10.196l3.992,2.795 c3.287,2.302,7.716,1.617,10.156-1.54l46.935-69.377c1.57-2.321,4.042-3.877,6.814-4.288c2.772-0.408,5.591,0.359,7.767,2.125 l16.1,13.058c4.463,1.818,9.604,0.81,13.056-2.641l6.687-6.686c-9.351,4.568-20.794,3.574-29.338-3.262L125.308,174.951z M96.795,146.296l-73.979,58.569c-3.086,2.443-3.735,6.883-1.478,10.107l3.112,4.443c2.328,3.326,6.806,4.181,10.196,1.947 l76.236-50.244c2.412-1.59,5.302-2.015,7.954-1.346l-10.142-8.113C103.487,157.495,99.443,152.216,96.795,146.296z M195.4,201.537 c1.059,0,2.125,0.168,3.161,0.513l8.632,2.877c5.867,1.958,12.218-0.816,14.776-6.443c0.096-0.212,29.801-55.061,29.801-55.061 c2.863-6.608,1.389-14.418-3.718-19.523l-4.748-4.748c-1.875-1.876-2.929-4.419-2.929-7.071s1.054-5.195,2.929-7.071l29.544-29.543 l-50.421-50.421l-101.883,88.298c-4.788,4.15-7.464,10.165-7.339,16.502c0.125,6.336,3.035,12.24,7.983,16.199l49.91,39.929 c3.026,2.42,7.37,2.181,10.109-0.56l3.891-3.891c2.958-2.958,2.958-7.775-0.001-10.735l-15.022-15.021 c-2.017-2.017-3.076-4.8-2.912-7.647s1.537-5.489,3.772-7.262c0.097-0.078,12.989-10.628,14.093-24.183 c0.574-7.052-2.143-13.831-8.306-20.727c-3.681-4.118-3.325-10.439,0.792-14.12c4.119-3.682,10.439-3.325,14.12,0.792 c9.923,11.104,14.402,23.171,13.312,35.867c-1.11,12.938-7.98,23.496-13.682,30.184l7.976,7.975 c10.757,10.759,10.757,28.262,0,39.02l-3.891,3.891c-0.854,0.854-1.753,1.643-2.687,2.363 C193.551,201.665,194.472,201.537,195.4,201.537z"/> </g> </g>
</svg>